<?xml version="1.0" encoding="UTF-8"?>
<svg id="Calque_1" data-name="Calque 1" xmlns="http://www.w3.org/2000/svg" viewBox="0 0 504.4 293.52">
  <defs>
    <style>
      .cls-1 {
        fill: #b7d14e;
        stroke: #b7d14e;
        stroke-miterlimit: 10;
        stroke-width: .5px;
      }
    </style>
  </defs>
  <g>
    <rect class="cls-1" x="486.78" y="262.73" width="17.38" height="29.94" transform="translate(990.93 555.41) rotate(180)"/>
    <rect class="cls-1" x="486.78" y="167.62" width="17.38" height="69.64" transform="translate(990.93 404.88) rotate(180)"/>
    <rect class="cls-1" x="469.4" y="220.86" width="17.38" height="71.82" transform="translate(956.18 513.54) rotate(180)"/>
    <rect class="cls-1" x="469.4" y="150.22" width="17.38" height="41.99" transform="translate(956.18 342.43) rotate(180)"/>
    <rect class="cls-1" x="452.03" y="72.51" width="17.38" height="220.17" transform="translate(921.43 365.18) rotate(180)"/>
    <rect class="cls-1" x="417.27" y="117.12" width="17.38" height="175.56" transform="translate(851.92 409.79) rotate(180)"/>
    <rect class="cls-1" x="417.27" y="41.35" width="17.38" height="21.84" transform="translate(851.92 104.54) rotate(180)"/>
    <rect class="cls-1" x="469.4" y="42.68" width="17.38" height="21.26" transform="translate(956.18 106.61) rotate(180)"/>
    <rect class="cls-1" x="399.9" y="262.73" width="17.38" height="29.94" transform="translate(817.17 555.41) rotate(180)"/>
    <rect class="cls-1" x="399.9" y="153.32" width="17.38" height="72.41" transform="translate(817.17 379.05) rotate(180)"/>
    <rect class="cls-1" x="382.52" y="106.97" width="17.38" height="185.7" transform="translate(782.42 399.65) rotate(180)"/>
    <rect class="cls-1" x="365.15" y="95.96" width="17.38" height="196.72" transform="translate(747.67 388.63) rotate(180)"/>
    <rect class="cls-1" x="347.77" y="271.34" width="17.38" height="21.33" transform="translate(712.92 564.02) rotate(180)"/>
    <rect class="cls-1" x="347.77" y="162.15" width="17.38" height="28.75" transform="translate(712.92 353.05) rotate(180)"/>
    <rect class="cls-1" x="347.77" y="214.64" width="17.38" height="28.75" transform="translate(712.92 458.03) rotate(180)"/>
    <rect class="cls-1" x="330.39" y="87.05" width="17.38" height="30.01" transform="translate(678.16 204.12) rotate(180)"/>
    <rect class="cls-1" x="330.39" y="49.02" width="17.38" height="20.19" transform="translate(678.16 118.24) rotate(180)"/>
    <rect class="cls-1" x="330.39" y="148.7" width="17.38" height="143.97" transform="translate(678.16 441.38) rotate(180)"/>
    <rect class="cls-1" x="313.02" y="170.53" width="17.38" height="122.15" transform="translate(643.41 463.21) rotate(180)"/>
    <rect class="cls-1" x="295.64" y="92.27" width="17.38" height="200.41" transform="translate(608.66 384.94) rotate(180)"/>
    <rect class="cls-1" x="295.64" y="45.59" width="17.38" height="24.35" transform="translate(608.66 115.52) rotate(180)"/>
    <rect class="cls-1" x="156.63" y=".25" width="17.38" height="20.35" transform="translate(330.64 20.85) rotate(180)"/>
    <rect class="cls-1" x="260.89" y="59.55" width="17.38" height="33.83" transform="translate(539.16 152.93) rotate(180)"/>
    <rect class="cls-1" x="139.26" y="57.76" width="17.38" height="22.07" transform="translate(295.89 137.59) rotate(180)"/>
    <rect class="cls-1" x="191.39" y="24.22" width="17.38" height="19.03" transform="translate(400.15 67.47) rotate(180)"/>
    <rect class="cls-1" x="226.14" y="51.89" width="17.38" height="19.03" transform="translate(469.65 122.82) rotate(180)"/>
    <rect class="cls-1" x="295.64" y="11.08" width="17.38" height="19.03" transform="translate(608.66 41.19) rotate(180)"/>
    <rect class="cls-1" x="365.15" y="57.93" width="17.38" height="19.03" transform="translate(747.67 134.9) rotate(180)"/>
    <rect class="cls-1" x="399.9" y="78.11" width="17.38" height="19.03" transform="translate(817.17 175.25) rotate(180)"/>
    <rect class="cls-1" x="417.27" y="11.64" width="17.38" height="19.03" transform="translate(851.92 42.3) rotate(180)"/>
    <rect class="cls-1" x="278.27" y="106.97" width="17.38" height="185.7" transform="translate(573.91 399.65) rotate(180)"/>
    <rect class="cls-1" x="260.89" y="287.87" width="17.38" height="4.81" transform="translate(539.16 580.54) rotate(180)"/>
    <rect class="cls-1" x="260.89" y="207.1" width="17.38" height="66.6" transform="translate(539.16 480.79) rotate(180)"/>
    <rect class="cls-1" x="243.51" y="145.42" width="17.38" height="147.25" transform="translate(504.4 438.1) rotate(180)"/>
    <rect class="cls-1" x="226.14" y="116.43" width="17.38" height="176.25" transform="translate(469.65 409.1) rotate(180)"/>
    <rect class="cls-1" x="208.76" y="137.08" width="17.38" height="61.07" transform="translate(434.9 335.24) rotate(180)"/>
    <rect class="cls-1" x="208.76" y="232.2" width="17.38" height="61.07" transform="translate(434.9 525.47) rotate(180)"/>
    <rect class="cls-1" x="434.65" y="92.11" width="17.38" height="200.56" transform="translate(886.68 384.79) rotate(180)"/>
    <rect class="cls-1" x="191.39" y="69.44" width="17.38" height="223.24" transform="translate(400.15 362.11) rotate(180)"/>
    <rect class="cls-1" x="174.01" y="102.06" width="17.38" height="190.62" transform="translate(365.4 394.74) rotate(180)"/>
    <rect class="cls-1" x="156.63" y="250.6" width="17.38" height="42.07" transform="translate(330.64 543.28) rotate(180)"/>
    <rect class="cls-1" x="156.63" y="95.31" width="17.38" height="42.07" transform="translate(330.64 232.69) rotate(180)"/>
    <rect class="cls-1" x="121.88" y="223.23" width="17.38" height="69.45" transform="translate(261.14 515.9) rotate(180)"/>
    <rect class="cls-1" x="121.88" y="146.35" width="17.38" height="42.06" transform="translate(261.14 334.77) rotate(180)"/>
    <rect class="cls-1" x="104.51" y="167.38" width="17.38" height="125.29" transform="translate(226.39 460.06) rotate(180)"/>
    <rect class="cls-1" x="104.51" y="83.6" width="17.38" height="33.47" transform="translate(226.39 200.66) rotate(180)"/>
    <rect class="cls-1" x="17.63" y="73.79" width="17.38" height="19.6" transform="translate(52.63 167.19) rotate(180)"/>
    <rect class="cls-1" x="104.51" y="49.21" width="17.38" height="19.81" transform="translate(226.39 118.24) rotate(180)"/>
    <rect class="cls-1" x="87.13" y="128.84" width="17.38" height="163.83" transform="translate(191.64 421.52) rotate(180)"/>
    <rect class="cls-1" x="69.75" y="282.01" width="17.38" height="10.67" transform="translate(156.88 574.69) rotate(180)"/>
    <rect class="cls-1" x="69.75" y="179.88" width="17.38" height="91.7" transform="translate(156.88 451.46) rotate(180)"/>
    <rect class="cls-1" x="139.26" y="116.34" width="17.38" height="176.33" transform="translate(295.89 409.02) rotate(180)"/>
    <rect class="cls-1" x="52.38" y="87.05" width="17.38" height="205.62" transform="translate(122.13 379.73) rotate(180)"/>
    <rect class="cls-1" x="52.38" y="46.66" width="17.38" height="22.21" transform="translate(122.13 115.52) rotate(180)"/>
    <rect class="cls-1" x="35" y="250.6" width="17.38" height="42.07" transform="translate(87.38 543.28) rotate(180)"/>
    <rect class="cls-1" x="35" y="120.39" width="17.38" height="100.47" transform="translate(87.38 341.25) rotate(180)"/>
    <rect class="cls-1" x="17.63" y="101.85" width="17.38" height="190.83" transform="translate(52.63 394.53) rotate(180)"/>
    <rect class="cls-1" x=".25" y="136.01" width="17.38" height="156.66" transform="translate(17.88 428.69) rotate(180)"/>
  </g>
  <g>
    <rect class="cls-1" x="486.78" y="292.68" width="17.38" height="48.63"/>
    <rect class="cls-1" x="469.4" y="292.68" width="17.38" height="48.63"/>
    <rect class="cls-1" x="452.03" y="292.68" width="17.38" height="48.63"/>
    <rect class="cls-1" x="417.27" y="292.68" width="17.38" height="48.63"/>
    <rect class="cls-1" x="399.9" y="292.68" width="17.38" height="48.63"/>
    <rect class="cls-1" x="382.52" y="292.68" width="17.38" height="48.63"/>
    <rect class="cls-1" x="365.15" y="292.68" width="17.38" height="48.63"/>
    <rect class="cls-1" x="347.77" y="292.68" width="17.38" height="48.63"/>
    <rect class="cls-1" x="330.39" y="292.68" width="17.38" height="48.63"/>
    <rect class="cls-1" x="313.02" y="292.68" width="17.38" height="48.63"/>
    <rect class="cls-1" x="295.64" y="292.68" width="17.38" height="48.63"/>
    <rect class="cls-1" x="278.27" y="292.68" width="17.38" height="48.63"/>
    <rect class="cls-1" x="260.89" y="292.68" width="17.38" height="48.63"/>
    <rect class="cls-1" x="243.51" y="292.68" width="17.38" height="48.63"/>
    <rect class="cls-1" x="226.14" y="292.68" width="17.38" height="48.63"/>
    <rect class="cls-1" x="208.76" y="292.68" width="17.38" height="48.63"/>
    <rect class="cls-1" x="434.65" y="292.68" width="17.38" height="48.63"/>
    <rect class="cls-1" x="191.39" y="292.68" width="17.38" height="48.63"/>
    <rect class="cls-1" x="174.01" y="292.68" width="17.38" height="48.63"/>
    <rect class="cls-1" x="156.63" y="292.68" width="17.38" height="48.63"/>
    <rect class="cls-1" x="121.88" y="292.68" width="17.38" height="48.63"/>
    <rect class="cls-1" x="104.51" y="292.68" width="17.38" height="48.63"/>
    <rect class="cls-1" x="87.13" y="292.68" width="17.38" height="48.63"/>
    <rect class="cls-1" x="69.75" y="292.68" width="17.38" height="48.63"/>
    <rect class="cls-1" x="139.26" y="292.68" width="17.38" height="48.63"/>
    <rect class="cls-1" x="52.38" y="292.68" width="17.38" height="48.63"/>
    <rect class="cls-1" x="35" y="292.68" width="17.38" height="48.63"/>
    <rect class="cls-1" x="17.63" y="292.68" width="17.38" height="48.63"/>
    <rect class="cls-1" x=".25" y="292.68" width="17.38" height="48.63"/>
  </g>
</svg>