<?xml version="1.0" standalone="no"?>
<!DOCTYPE svg PUBLIC "-//W3C//DTD SVG 20010904//EN"
 "http://www.w3.org/TR/2001/REC-SVG-20010904/DTD/svg10.dtd">
<svg version="1.0" xmlns="http://www.w3.org/2000/svg"
 width="2196.000000pt" height="2196.000000pt" viewBox="0 0 2196.000000 2196.000000"
 preserveAspectRatio="xMidYMid meet">
<metadata>
Created by potrace 1.14, written by Peter Selinger 2001-2017
</metadata>
<g transform="translate(0.000000,2196.000000) scale(0.100000,-0.100000)"
fill="#000000" stroke="none">
<path d="M7195 13976 c-7 -22 0 -5984 7 -5991 8 -9 173 -9 187 -1 5 4 12 2 15
-2 5 -8 29 -9 61 -2 6 1 15 2 20 1 29 -5 376 -2 384 3 5 4 12 2 15 -2 5 -8 29
-9 61 -2 6 1 15 2 20 1 29 -5 376 -2 384 3 5 4 12 2 15 -2 5 -8 29 -9 61 -2 6
1 15 2 20 1 29 -5 376 -2 384 3 5 4 12 2 15 -2 5 -8 29 -9 61 -2 6 1 15 2 20
1 27 -5 1255 -2 1262 2 5 3 9 437 9 1001 l-1 996 105 0 c811 2 1026 4 1085 11
112 12 158 18 185 24 14 4 34 7 45 9 11 2 55 13 98 25 43 12 86 24 95 26 73
17 306 123 412 187 65 39 183 118 190 128 3 3 16 13 29 22 32 23 169 146 201
182 14 16 36 40 50 55 34 34 128 155 165 211 17 25 32 47 35 50 3 3 12 19 20
35 8 17 17 32 21 35 3 3 13 21 23 40 10 19 29 58 43 85 57 112 130 320 156
445 3 14 7 34 10 45 3 11 8 45 12 75 4 30 9 64 11 75 2 11 7 61 10 110 13 201
-3 400 -47 580 -50 208 -140 430 -229 570 -11 17 -23 37 -27 45 -3 8 -9 17
-12 20 -3 3 -10 12 -16 21 -27 43 -65 96 -84 118 -11 13 -21 27 -21 30 0 12
-214 228 -280 282 -35 30 -71 60 -78 67 -7 6 -17 12 -22 12 -5 0 -15 6 -22 13
-19 19 -105 77 -114 77 -4 0 -15 6 -23 14 -32 27 -278 146 -302 146 -8 0 -19
4 -24 9 -12 11 -114 43 -220 70 -82 20 -114 26 -200 37 -27 3 -61 8 -75 11
-14 3 -965 6 -2113 8 -1515 1 -2090 -1 -2092 -9z"/>
<path d="M13240 13982 c-7 -3 -5 -11 6 -23 9 -10 14 -19 11 -19 -4 0 12 -35
34 -77 76 -145 83 -158 84 -163 2 -15 901 -1806 910 -1812 5 -4 7 -8 4 -8 -7
0 145 -306 162 -327 6 -7 9 -13 6 -13 -5 0 86 -185 108 -220 5 -8 10 -17 10
-20 1 -12 500 -1006 508 -1011 5 -3 7 -8 6 -10 -2 -2 255 -521 571 -1152 l574
-1149 209 419 c114 230 213 422 218 428 5 5 9 17 9 27 0 10 5 18 10 18 6 0 10
5 10 11 0 14 463 943 473 947 4 2 7 8 7 13 0 13 73 163 83 170 5 3 8 8 7 10
-2 4 200 415 230 469 8 14 15 27 15 30 2 8 24 51 55 109 l28 54 16 -39 c9 -21
20 -46 26 -54 11 -18 84 -163 85 -170 0 -3 7 -16 15 -30 7 -14 148 -295 312
-625 164 -330 303 -607 308 -615 5 -8 59 -116 120 -240 61 -124 115 -232 120
-240 10 -15 72 -141 74 -150 1 -3 7 -14 14 -25 7 -11 66 -129 133 -262 66
-134 123 -243 127 -243 5 1 2971 5923 3000 5989 2 7 -8679 9 -8698 3z"/>
<path d="M19 13976 c-3 -3 -3 -5926 0 -5986 1 -13 340 -15 2998 -13 1649 1
3000 2 3003 2 4 1 5 5941 1 5990 0 7 -676 -661 -1501 -1486 l-1499 -1500
-1499 1498 c-824 825 -1500 1497 -1503 1495z"/>
</g>
</svg>
