<?xml version="1.0" encoding="UTF-8"?><svg id="Calque_3" xmlns="http://www.w3.org/2000/svg" xmlns:xlink="http://www.w3.org/1999/xlink" viewBox="0 0 30.76 23.75"><defs><style>.cls-1,.cls-2{fill:#f9ba52;}.cls-3,.cls-4{fill:#fff;}.cls-2,.cls-4{fill-rule:evenodd;}</style><symbol id="Picto_En_cours" viewBox="0 0 3133.35 377.67"><circle class="cls-3" cx="3121.04" cy="12.3" r="12.3"/><rect class="cls-1" x="3119.51" y="4.42" width="3.08" height="7.88"/><polygon class="cls-2" points="3119.51 13.84 3119.51 10.77 3130.81 10.77 3130.81 13.84 3119.51 13.84"/><path class="cls-4" d="m12.3,353.06c-6.8,0-12.3,5.51-12.3,12.3s5.51,12.3,12.3,12.3,12.3-5.51,12.3-12.3-5.51-12.3-12.3-12.3Zm-1.54,13.84v-9.42h3.08v6.34h8.23v3.08h-11.3Z"/></symbol></defs><use width="3133.35" height="377.67" transform="translate(-399.49 -340.94) scale(1.1)" xlink:href="#Picto_En_cours"/><rect class="cls-3" x="-.02" y="11.88" width="16.85" height="6.93" transform="translate(13.31 -1.45) rotate(45)"/><rect class="cls-3" x="5.56" y="8.41" width="26.66" height="6.93" transform="translate(40.64 6.91) rotate(135)"/></svg>