<?xml version="1.0" encoding="UTF-8"?><svg id="Calque_3" xmlns="http://www.w3.org/2000/svg" xmlns:xlink="http://www.w3.org/1999/xlink" viewBox="0 0 26.38 26.38"><defs><style>.cls-1,.cls-2{fill:#f9ba52;}.cls-3,.cls-4{fill:#fff;}.cls-2,.cls-4{fill-rule:evenodd;}</style><symbol id="Picto_En_cours" viewBox="0 0 3133.35 377.67"><circle class="cls-3" cx="3121.04" cy="12.3" r="12.3"/><rect class="cls-1" x="3119.51" y="4.42" width="3.08" height="7.88"/><polygon class="cls-2" points="3119.51 13.84 3119.51 10.77 3130.81 10.77 3130.81 13.84 3119.51 13.84"/><path class="cls-4" d="m12.3,353.06c-6.8,0-12.3,5.51-12.3,12.3s5.51,12.3,12.3,12.3,12.3-5.51,12.3-12.3-5.51-12.3-12.3-12.3Zm-1.54,13.84v-9.42h3.08v6.34h8.23v3.08h-11.3Z"/></symbol></defs><use width="3133.35" height="377.67" transform="translate(-354.47 -353.45) scale(1.1)" xlink:href="#Picto_En_cours"/><path class="cls-3" d="m24.94,10.42l-1.63-.17c-.09,0-.16-.07-.19-.16-.2-.6-.44-1.17-.72-1.71-.04-.08-.03-.18.03-.25l1.03-1.28c.53-.64.48-1.57-.11-2.15l-1.65-1.65c-.59-.59-1.51-.64-2.15-.12l-1.32,1.06c-.07.05-.16.06-.25.02-.53-.28-1.09-.51-1.67-.68-.1-.03-.16-.11-.17-.2l-.18-1.69c-.06-.51-.34-.94-.77-1.2-.25-.15-.54-.23-.84-.23h-2.33c-.82,0-1.51.62-1.61,1.44l-.18,1.68c0,.09-.07.17-.16.2-.58.18-1.14.41-1.68.69-.08.04-.18.03-.25-.03l-1.31-1.05c-.64-.53-1.57-.48-2.15.11l-1.65,1.65c-.59.59-.64,1.51-.12,2.15l1.03,1.28c.06.07.07.17.02.26-.28.53-.52,1.1-.72,1.7-.03.09-.11.16-.2.17l-1.62.17c-.82.08-1.44.77-1.44,1.61v2.33c0,.3.08.59.24.84.26.42.7.7,1.2.76l1.58.17c.09,0,.17.08.19.16.19.63.43,1.23.72,1.78.04.08.03.18-.03.25l-.98,1.22c-.53.64-.48,1.57.11,2.15l1.65,1.65c.59.59,1.52.64,2.15.12l1.19-.96c.07-.06.18-.07.25-.03.58.31,1.19.57,1.81.76.09.03.15.1.16.2l.16,1.52c.09.82.78,1.43,1.6,1.43h2.33c.82,0,1.51-.62,1.61-1.44l.16-1.52c0-.09.07-.17.16-.2.61-.19,1.22-.44,1.81-.76.08-.04.18-.03.26.03l1.19.95c.64.53,1.57.48,2.15-.11l1.65-1.65c.59-.59.64-1.51.12-2.15l-.99-1.23c-.05-.07-.06-.16-.02-.25.29-.57.53-1.17.72-1.77.03-.09.11-.15.2-.16l1.58-.17c.82-.09,1.43-.78,1.43-1.6v-2.33c0-.83-.62-1.52-1.44-1.61Zm-11.75,8.61c-3.22,0-5.84-2.62-5.84-5.84s2.62-5.84,5.84-5.84,5.84,2.62,5.84,5.84-2.62,5.84-5.84,5.84Z"/></svg>