<?xml version="1.0" encoding="UTF-8"?><svg id="Calque_3" xmlns="http://www.w3.org/2000/svg" xmlns:xlink="http://www.w3.org/1999/xlink" viewBox="0 0 25.85 24.68"><defs><style>.cls-1,.cls-2{fill:#f9ba52;}.cls-3,.cls-4{fill:#fff;}.cls-2,.cls-4{fill-rule:evenodd;}</style><symbol id="Picto_En_cours" viewBox="0 0 3133.35 377.67"><circle class="cls-3" cx="3121.04" cy="12.3" r="12.3"/><rect class="cls-1" x="3119.51" y="4.42" width="3.08" height="7.88"/><polygon class="cls-2" points="3119.51 13.84 3119.51 10.77 3130.81 10.77 3130.81 13.84 3119.51 13.84"/><path class="cls-4" d="m12.3,353.06c-6.8,0-12.3,5.51-12.3,12.3s5.51,12.3,12.3,12.3,12.3-5.51,12.3-12.3-5.51-12.3-12.3-12.3Zm-1.54,13.84v-9.42h3.08v6.34h8.23v3.08h-11.3Z"/></symbol></defs><use width="3133.35" height="377.67" transform="translate(-358.71 -406.32) scale(1.1)" xlink:href="#Picto_En_cours"/><path class="cls-3" d="m13.87.59l3.18,6.44c.15.31.45.53.79.58l7.11,1.03c.86.13,1.21,1.19.58,1.8l-5.14,5.01c-.25.24-.36.59-.3.93l1.21,7.08c.15.86-.76,1.52-1.53,1.11l-6.36-3.34c-.31-.16-.67-.16-.98,0l-6.36,3.34c-.77.41-1.68-.25-1.53-1.11l1.21-7.08c.06-.34-.05-.69-.3-.93L.32,10.43c-.63-.61-.28-1.67.58-1.8l7.11-1.03c.34-.05.64-.27.79-.58L11.98.59c.39-.78,1.5-.78,1.89,0Z"/></svg>