<?xml version="1.0" encoding="UTF-8"?><svg id="Calque_3" xmlns="http://www.w3.org/2000/svg" xmlns:xlink="http://www.w3.org/1999/xlink" viewBox="0 0 18.83 23.9"><defs><style>.cls-1,.cls-2{fill:#f9ba52;}.cls-3,.cls-4{fill:#fff;}.cls-2,.cls-4{fill-rule:evenodd;}</style><symbol id="Picto_En_cours" viewBox="0 0 3133.35 377.67"><circle class="cls-3" cx="3121.04" cy="12.3" r="12.3"/><rect class="cls-1" x="3119.51" y="4.42" width="3.08" height="7.88"/><polygon class="cls-2" points="3119.51 13.84 3119.51 10.77 3130.81 10.77 3130.81 13.84 3119.51 13.84"/><path class="cls-4" d="m12.3,353.06c-6.8,0-12.3,5.51-12.3,12.3s5.51,12.3,12.3,12.3,12.3-5.51,12.3-12.3-5.51-12.3-12.3-12.3Zm-1.54,13.84v-9.42h3.08v6.34h8.23v3.08h-11.3Z"/></symbol></defs><use width="3133.35" height="377.67" transform="translate(-452.11 -345.73) scale(1.1)" xlink:href="#Picto_En_cours"/><path class="cls-4" d="m18.82,8.24c-.14-.03-.24-.05-.53-.05h-1.62v-.88C16.68,3.28,13.39,0,9.35,0S2.04,3.28,2.04,7.32v.88H.51c-.29,0-.29.01-.51,0v15.71c1.06,0,.93-.02,2.09-.02h14.64c1.16,0,1.08,0,2.11,0v-15.65Zm-13.65-.93c0-2.31,1.88-4.18,4.18-4.18s4.18,1.88,4.18,4.18l-.02.88H5.17v-.88Zm1.5,13.03l1.64-3.32c-.76-.38-1.29-1.15-1.29-2.06,0-1.27,1.03-2.31,2.31-2.31s2.31,1.03,2.31,2.31c0,.85-.47,1.59-1.16,1.99l1.67,3.39h-5.48Z"/></svg>